<?xml version="1.0" standalone="no"?>
<!DOCTYPE svg PUBLIC "-//W3C//DTD SVG 20010904//EN"
 "http://www.w3.org/TR/2001/REC-SVG-20010904/DTD/svg10.dtd">
<svg version="1.0" xmlns="http://www.w3.org/2000/svg"
 width="500.000000pt" height="500.000000pt" viewBox="0 0 500.000000 500.000000"
 preserveAspectRatio="xMidYMid meet">
<metadata>
Created by potrace 1.14, written by Peter Selinger 2001-2017
</metadata>
<g transform="translate(0.000000,500.000000) scale(0.100000,-0.100000)"
fill="#000000" stroke="none">
<path d="M2647 4753 c-12 -12 -8 -401 4 -409 6 -4 62 -10 123 -15 207 -15 369
-59 563 -154 505 -246 821 -724 861 -1300 l7 -100 203 -3 c179 -2 203 -1 209
14 10 28 -16 291 -43 415 -176 835 -877 1461 -1733 1548 -118 13 -185 14 -194
4z m201 -58 c324 -22 690 -167 972 -384 354 -273 590 -636 696 -1066 24 -98
54 -313 54 -387 l0 -38 -159 0 -158 0 -7 38 c-3 20 -6 53 -6 73 0 20 -7 76
-15 125 -69 403 -289 764 -615 1011 -250 188 -501 281 -862 319 l-58 5 0 160
0 160 33 -5 c17 -3 74 -8 125 -11z"/>
<path d="M2646 4093 c-3 -3 -6 -97 -6 -209 l0 -202 83 -7 c348 -31 647 -255
767 -576 27 -73 50 -182 50 -239 1 -97 -15 -90 216 -90 l204 0 0 56 c0 162
-59 393 -143 560 -148 294 -430 539 -743 643 -124 42 -408 84 -428 64z m199
-58 c131 -21 228 -50 332 -100 422 -199 691 -582 729 -1034 l7 -81 -162 0
-161 0 0 24 c0 48 -31 199 -55 268 -112 320 -412 560 -758 607 -43 6 -83 11
-88 11 -5 0 -9 68 -9 160 l0 160 38 0 c20 0 78 -7 127 -15z"/>
<path d="M1905 3329 c-753 -9 -1071 -30 -1096 -70 -6 -10 -6 -185 0 -196 1 -1
34 -17 74 -37 91 -44 135 -81 191 -159 99 -139 144 -321 155 -632 12 -321 12
-783 1 -911 -37 -395 -149 -595 -351 -629 -24 -4 -56 -14 -71 -21 -27 -14 -28
-16 -27 -102 2 -123 8 -144 44 -153 53 -15 306 -39 505 -49 336 -16 1466 -24
1635 -11 144 11 220 23 232 35 4 3 7 18 9 33 1 16 9 69 17 118 29 169 87 560
92 630 4 39 2 76 -3 83 -15 22 -81 31 -161 22 -83 -9 -97 -20 -106 -79 -12
-78 -48 -189 -78 -240 -42 -69 -133 -154 -209 -192 -117 -59 -209 -72 -523
-73 -237 -1 -291 2 -354 17 -87 21 -136 45 -173 84 -44 46 -46 65 -27 233 10
85 23 232 28 325 6 94 14 212 17 264 l6 94 147 -6 c235 -8 362 -53 459 -162
29 -34 57 -79 73 -122 24 -62 30 -69 64 -81 21 -7 64 -15 95 -19 104 -10 111
14 109 442 -1 326 -11 561 -25 575 -7 7 -46 11 -94 11 -100 0 -126 -14 -135
-68 -23 -152 -54 -208 -140 -255 -73 -39 -165 -52 -330 -44 -77 3 -157 9 -178
12 l-38 7 6 471 c4 259 8 476 10 482 5 17 585 29 690 15 127 -18 203 -47 253
-98 24 -24 55 -51 68 -60 49 -31 94 -157 94 -258 0 -53 21 -79 77 -94 47 -13
138 -3 164 18 42 34 105 477 94 656 -11 169 -12 173 -52 190 -40 17 -190 17
-1238 4z"/>
</g>
</svg>
